<svg xmlns="http://www.w3.org/2000/svg" width="234" height="40" fill="none" viewBox="0 0 234 40">
    <path fill="#1565C0" d="M14.497 32.867l7.666-18.222L18.186 7.9l-7.1 16.929 3.41 8.038z"/>
    <path fill="#484848" d="M28.325 0l-6.162 14.645 2.203 3.753 3.582 6.078 4.045-9.611c.608-1.444 1.774-2.277 3.527-2.313L28.325 0z"/>
    <path fill="#1565C0" d="M26.256 28.522l1.703-4.046-3.593-6.078-2.213-3.753-7.656 18.222 2.704 6.486h7.928l-.042-.015a3.171 3.171 0 0 1-1.032-.627 2.964 2.964 0 0 1-.698-.95 2.819 2.819 0 0 1-.039-2.27l2.938-6.969z"/>
    <path fill="#484848" d="M8.599 18.728L0 39.355h17.2L8.6 18.728zM72.274 13.778l-7.142-.017-9.99 25.594h7.139l9.993-25.577zM83.624 22.674l-2.206 5.05h4.595a.856.856 0 0 1 .288.167c.083.073.15.16.196.258a.76.76 0 0 1 .014.623l-.828 1.896-.482 1.1-1.142 2.615c-.168.385-.42.56-1.001.568h-6.372a1.96 1.96 0 0 1-.657-.378 1.83 1.83 0 0 1-.448-.589 1.734 1.734 0 0 1-.032-1.42l1.889-4.326 1.098-2.51 2.607-5.978c.393-.898.974-1.298 2.358-1.298H97.01l1.834-4.69H80.242c-2.144 0-3.048.621-3.656 2.014l-4.042 9.253-1.703 3.896-2.935 6.71a2.684 2.684 0 0 0 .051 2.203c.165.345.401.656.695.913.294.258.64.458 1.018.587l.042.015h19.126l6.532-16.68H83.624zM45.285 22.674l-2.209 5.05h4.609a.86.86 0 0 1 .287.167.763.763 0 0 1 .21.88l-.827 1.897-.482 1.1-1.143 2.615c-.17.385-.419.56-1 .568h-6.386a1.957 1.957 0 0 1-.655-.378 1.828 1.828 0 0 1-.448-.59 1.733 1.733 0 0 1-.03-1.42l1.888-4.325 1.098-2.51 2.62-5.963c.39-.898.975-1.298 2.358-1.298h13.512l1.834-4.691H41.918c-2.14 0-3.044.622-3.652 2.014l-4.045 9.254-1.732 3.88-2.932 6.71a2.68 2.68 0 0 0 .049 2.205c.164.345.4.656.695.913.295.258.641.457 1.02.586l.041.015h19.126l6.517-16.68h-11.72z"/>
    <path fill="#1565C0" d="M217.783 22.674l-2.206 5.05h4.595a.858.858 0 0 1 .288.167.778.778 0 0 1 .27.568.765.765 0 0 1-.06.313l-.828 1.896-.482 1.1-1.142 2.615c-.171.385-.419.56-1.001.568h-6.372a1.956 1.956 0 0 1-.657-.378 1.839 1.839 0 0 1-.448-.589 1.727 1.727 0 0 1-.032-1.42l1.889-4.326 1.098-2.51 2.62-5.963c.393-.898.974-1.298 2.358-1.298h13.493L233 13.776h-18.602c-2.141 0-3.045.622-3.653 2.014l-4.045 9.254-1.703 3.895-2.932 6.71a2.685 2.685 0 0 0 .051 2.203c.165.346.401.657.695.914.294.258.64.457 1.017.587l.042.015h19.127l6.518-16.694h-11.732zM157.813 34.341h-.026a1.909 1.909 0 0 1-.645-.371 1.799 1.799 0 0 1-.439-.58 1.698 1.698 0 0 1-.025-1.394l1.85-4.234.275-.63h15.168l1.81-4.636h-14.955l1.326-3.03c.382-.876.953-1.268 2.303-1.268h13.003l1.734-4.444H160.59c-2.141 0-3.044.622-3.652 2.014l-4.046 9.253-1.716 3.904-2.932 6.71a2.687 2.687 0 0 0 .049 2.204c.165.345.401.656.696.913a3.03 3.03 0 0 0 1.019.586l.042.015h19.126l1.96-5.012h-13.323z"/>
    <path fill="#484848" d="M99.247 23.87v.023l.716-1.634-.716 1.612zM119.505 29.645l.537-1.234.716-1.632v-.032l-.582 1.328-.671 1.57z" opacity=".5"/>
    <path fill="#484848" d="M107.922 19.674l.388-.884c.199-.402.5-.585 1.163-.585h15.028l1.937-4.444h-19.996c-1.415 0-2.285.272-2.883.857-.33.336-.589.73-.762 1.158l-2.843 6.483-.715 1.634a2.677 2.677 0 0 0 .061 2.19c.165.343.4.65.693.907.293.255.637.453 1.012.582l.042.015h11.235c.16.055.306.14.431.25.124.109.225.24.294.387a1.144 1.144 0 0 1 .021.935l-1.244 2.85-.501 1.142c-.262.519-.647.756-1.501.756H94.848l-.265.656-.24.56-.226.514c0 .018 0 .035-.019.05l-1.572 3.668h19.981c1.412 0 2.285-.271 2.882-.856.331-.336.59-.73.762-1.158l3.362-7.693.681-1.56.582-1.329c.139-.348.204-.72.191-1.092a2.689 2.689 0 0 0-.271-1.077 2.829 2.829 0 0 0-.691-.896 3.014 3.014 0 0 0-1.003-.576l-.042-.015h-11.421a.99.99 0 0 1-.334-.192.93.93 0 0 1-.229-.3.889.889 0 0 1-.016-.725l.962-2.212z"/>
    <path fill="#484848" d="M131.696 27.51l-2.641 6.656 2.641-6.656z" opacity=".5"/>
    <path fill="#1565C0" d="M202.972 13.776l-.044-.015h-19.127l-10.003 25.592h6.836l4.7-11.85.262-.692 1.965-4.957 1.423-3.642H196.309c.15.05.288.127.406.227.117.1.212.222.279.358a1.054 1.054 0 0 1 .033.87l-.809 1.849c-.241.553-.6.8-1.449.8h-4.978l-1.787 4.503-.262.691-.629 1.587 2.45 10.256h7.105l-3.471-12.534h4.716c2.002 0 2.921-.546 3.529-1.753l.359-.872 2.934-6.71a2.677 2.677 0 0 0-.048-2.206 2.843 2.843 0 0 0-.696-.915 3.035 3.035 0 0 0-1.019-.587zM149.523 13.776l-.044-.015h-19.127l-10.003 25.592h18.602c2.141 0 3.045-.622 3.655-2.015l4.043-9.253.563-1.286c.176-.41.105-1.234-.348-1.387h.228c.506 0 .88-.413 1.048-.7l.225-.515 2.935-6.71a2.688 2.688 0 0 0-.053-2.211 2.833 2.833 0 0 0-.7-.915 3.035 3.035 0 0 0-1.024-.585zm-6.131 5.89l-.807 1.85c-.243.553-.6.8-1.449.8h-4.978l-2.059 5.184h4.512c.242.083.464.21.654.375.189.165.341.363.448.584.106.222.165.46.172.703.006.243-.038.485-.132.71l-1.31 3.008c-.393.896-.975 1.298-2.358 1.298h-7.03l2.641-6.665 2.241-5.65 1.422-3.64h7.326c.148.05.283.127.399.227a1.082 1.082 0 0 1 .383.783 1.06 1.06 0 0 1-.075.434z"/>
</svg>
